<svg xmlns="http://www.w3.org/2000/svg" width="147.991" height="137.616"
  viewBox="0 0 147.991 137.616">
  <g id="logo-footer" transform="translate(-101.759 -394.262)">
    <g id="Group_93" data-name="Group 93" transform="translate(137.003 394.262)">
      <g id="Group_92" data-name="Group 92" transform="translate(0)">
        <path id="Path_211" data-name="Path 211"
          d="M460.166,245.139a23.686,23.686,0,0,0,5.957-2.758c.588-.389.444-.388.9.108a14.756,14.756,0,0,1,3.712,7.233c.067.344.135.371.415.178a32.609,32.609,0,0,0,7.014-6.454,31.814,31.814,0,0,0,6.506-13.986,29.739,29.739,0,0,0,.467-8.552,31.985,31.985,0,0,0-8.51-19.292,31.558,31.558,0,0,0-15.369-9.184,31.182,31.182,0,0,0-8.772-1.041,31.994,31.994,0,0,0-17.342,58.475c.358.244.357.243.446-.19a15.821,15.821,0,0,1,5.114-8.645,26.376,26.376,0,0,1,10.393-5.742,24.408,24.408,0,0,0,8.2-4.385,9.312,9.312,0,0,0,3.528-6.4,9.715,9.715,0,0,0-19.193-2.937,9.467,9.467,0,0,0,3.79,9.664c.141.11.287.214.458.341-1.42.5-2.769,1.053-4.095,1.667a24.822,24.822,0,0,0-2.231,1.184.4.4,0,0,1-.611-.094,16.143,16.143,0,0,1-4.172-11.933,15.857,15.857,0,0,1,4.1-9.817,15.533,15.533,0,0,1,8.689-5.119,16.11,16.11,0,0,1,14.414,3.626,15.58,15.58,0,0,1,5.432,9.983,16.176,16.176,0,0,1-3.947,13.166,21.923,21.923,0,0,1-4.225,3.528,34.018,34.018,0,0,1-8.289,4.035,28.7,28.7,0,0,0-5.717,2.6,11.6,11.6,0,0,0-4.708,6.19,23.08,23.08,0,0,0-1.194,6.118c-.078,1.049-.087,2.1-.087,3.149,0,.3-.083.346-.36.252a38.739,38.739,0,0,1-26.449-38.739,37.506,37.506,0,0,1,3.859-14.9,38.489,38.489,0,0,1,15.561-16.649,37.893,37.893,0,0,1,13.184-4.659,38.977,38.977,0,0,1,23.716,3.726,38.825,38.825,0,0,1,19.969,24.839,37.524,37.524,0,0,1,1.153,7.354,38.8,38.8,0,0,1-23.834,38.045c-.848.353-1.722.641-2.577.977-.3.117-.378.054-.375-.265a32.3,32.3,0,0,0-.4-5.733,16.313,16.313,0,0,0-2.742-7.069A13.505,13.505,0,0,0,460.166,245.139Z"
          transform="translate(-414.381 -184.683)" fill="#338fc7" />
      </g>
    </g>

  </g>
</svg>